<?xml version="1.0" encoding="UTF-8"?><svg xmlns="http://www.w3.org/2000/svg" width="1024" height="1024" viewBox="0 0 1024 1024" role="img" aria-label="Vehicle Liquid Glass icon"><defs><linearGradient id="vehicle-mono-glass" x1="180" y1="150" x2="840" y2="880"><stop stop-color="#FCFCFD" stop-opacity=".72"/><stop offset="1" stop-color="#D9DCE2" stop-opacity=".72"/></linearGradient><radialGradient id="vehicle-mono-a" cx="25%" cy="18%" r="72%"><stop stop-color="#5F6570" stop-opacity=".78"/><stop offset="1" stop-color="#5F6570" stop-opacity="0"/></radialGradient><radialGradient id="vehicle-mono-b" cx="82%" cy="86%" r="68%"><stop stop-color="#B9BDC5" stop-opacity=".72"/><stop offset="1" stop-color="#B9BDC5" stop-opacity="0"/></radialGradient><linearGradient id="vehicle-mono-spec" x1="210" y1="170" x2="760" y2="720"><stop stop-color="#FFF" stop-opacity=".92"/><stop offset=".28" stop-color="#FFF" stop-opacity=".24"/><stop offset=".52" stop-color="#FFF" stop-opacity="0"/></linearGradient><filter id="vehicle-mono-shadow" x="-30%" y="-30%" width="160%" height="180%"><feDropShadow dx="0" dy="42" stdDeviation="44" flood-color="#101323" flood-opacity=".20"/></filter><filter id="vehicle-mono-blur"><feGaussianBlur stdDeviation="28"/></filter></defs><g id="background"><circle cx="310" cy="280" r="250" fill="url(#vehicle-mono-a)" filter="url(#vehicle-mono-blur)"/><circle cx="730" cy="720" r="270" fill="url(#vehicle-mono-b)" filter="url(#vehicle-mono-blur)"/></g><g id="glass" filter="url(#vehicle-mono-shadow)"><rect x="112" y="112" width="800" height="800" rx="238" fill="url(#vehicle-mono-glass)" stroke="#FFF" stroke-opacity=".88" stroke-width="10"/><path d="M214 421c21-150 115-240 280-270 100-18 209 5 316 69-47-45-110-76-189-92-179-37-343 14-407 137-24 45-32 97-24 156 5 31 11 31 24 0Z" fill="url(#vehicle-mono-spec)"/><path d="M194 680c90 113 231 168 390 146 99-14 178-50 238-108-49 94-144 157-267 178-173 30-327-29-394-148-20-36-9-76 33-68Z" fill="#B9BDC5" opacity=".34"/><rect x="132" y="132" width="760" height="760" rx="220" fill="none" stroke="#FFF" stroke-opacity=".28" stroke-width="4"/></g><g id="glyph" transform="translate(272 272) scale(20)" fill="none" stroke="#12131B" stroke-width="1.65" stroke-linecap="round" stroke-linejoin="round"><path d="m4 15 1.5-5h13l1.5 5v4H4Z"/><path d="m7 10 2-4h6l2 4"/><circle cx="7.5" cy="18" r="1.5"/><circle cx="16.5" cy="18" r="1.5"/><path d="M4 15h16"/></g></svg>