<?xml version="1.0" encoding="UTF-8"?><svg xmlns="http://www.w3.org/2000/svg" width="1024" height="1024" viewBox="0 0 1024 1024" role="img" aria-label="Deal Liquid Glass icon"><defs><linearGradient id="deal-default-glass" x1="180" y1="150" x2="840" y2="880"><stop stop-color="#FFF" stop-opacity=".62"/><stop offset="1" stop-color="#E9ECF4" stop-opacity=".62"/></linearGradient><radialGradient id="deal-default-a" cx="25%" cy="18%" r="72%"><stop stop-color="#24345F" stop-opacity=".78"/><stop offset="1" stop-color="#24345F" stop-opacity="0"/></radialGradient><radialGradient id="deal-default-b" cx="82%" cy="86%" r="68%"><stop stop-color="#7C70D9" stop-opacity=".72"/><stop offset="1" stop-color="#7C70D9" stop-opacity="0"/></radialGradient><linearGradient id="deal-default-spec" x1="210" y1="170" x2="760" y2="720"><stop stop-color="#FFF" stop-opacity=".92"/><stop offset=".28" stop-color="#FFF" stop-opacity=".24"/><stop offset=".52" stop-color="#FFF" stop-opacity="0"/></linearGradient><filter id="deal-default-shadow" x="-30%" y="-30%" width="160%" height="180%"><feDropShadow dx="0" dy="42" stdDeviation="44" flood-color="#101323" flood-opacity=".22"/></filter><filter id="deal-default-blur"><feGaussianBlur stdDeviation="28"/></filter></defs><g id="background"><circle cx="310" cy="280" r="250" fill="url(#deal-default-a)" filter="url(#deal-default-blur)"/><circle cx="730" cy="720" r="270" fill="url(#deal-default-b)" filter="url(#deal-default-blur)"/></g><g id="glass" filter="url(#deal-default-shadow)"><rect x="112" y="112" width="800" height="800" rx="238" fill="url(#deal-default-glass)" stroke="#FFF" stroke-opacity=".86" stroke-width="10"/><path d="M214 421c21-150 115-240 280-270 100-18 209 5 316 69-47-45-110-76-189-92-179-37-343 14-407 137-24 45-32 97-24 156 5 31 11 31 24 0Z" fill="url(#deal-default-spec)"/><path d="M194 680c90 113 231 168 390 146 99-14 178-50 238-108-49 94-144 157-267 178-173 30-327-29-394-148-20-36-9-76 33-68Z" fill="#7C70D9" opacity=".42"/><rect x="132" y="132" width="760" height="760" rx="220" fill="none" stroke="#FFF" stroke-opacity=".28" stroke-width="4"/></g><g id="glyph" transform="translate(272 272) scale(20)" fill="none" stroke="#101323" stroke-width="1.65" stroke-linecap="round" stroke-linejoin="round"><path d="M12 3 20 8v8l-8 5-8-5V8Z"/><path d="m8 12 2.4 2.4L16.5 8"/></g></svg>